<svg
   xmlns:dc="http://purl.org/dc/elements/1.1/"
   xmlns:cc="http://creativecommons.org/ns#"
   xmlns:rdf="http://www.w3.org/1999/02/22-rdf-syntax-ns#"
   xmlns:svg="http://www.w3.org/2000/svg"
   xmlns="http://www.w3.org/2000/svg"
   xmlns:sodipodi="http://sodipodi.sourceforge.net/DTD/sodipodi-0.dtd"
   xmlns:inkscape="http://www.inkscape.org/namespaces/inkscape"
   id="svg2"
   version="1.1"
   inkscape:version="0.48.4 r9939"
   viewBox="0 0 500 300"
   xml:space="preserve"
   sodipodi:docname="marlborocolor.svg"><metadata
     id="metadata8"><rdf:RDF><cc:Work
         rdf:about=""><dc:format>image/svg+xml</dc:format><dc:type
           rdf:resource="http://purl.org/dc/dcmitype/StillImage" /><dc:title></dc:title></cc:Work></rdf:RDF></metadata><defs
     id="defs6"><clipPath
       clipPathUnits="userSpaceOnUse"
       id="clipPath32"><path
         d="m 0,0 2384,0 0,3370 L 0,3370 0,0 z"
         id="path34"
         inkscape:connector-curvature="0" /></clipPath><clipPath
       clipPathUnits="userSpaceOnUse"
       id="clipPath52"><path
         d="m 0,0 2384,0 0,3370 L 0,3370 0,0 z"
         id="path54"
         inkscape:connector-curvature="0" /></clipPath><clipPath
       clipPathUnits="userSpaceOnUse"
       id="clipPath92"><path
         d="m 0,0 2384,0 0,3370 L 0,3370 0,0 z"
         id="path94"
         inkscape:connector-curvature="0" /></clipPath><clipPath
       clipPathUnits="userSpaceOnUse"
       id="clipPath132"><path
         d="m 0,0 2384,0 0,3370 L 0,3370 0,0 z"
         id="path134"
         inkscape:connector-curvature="0" /></clipPath><clipPath
       clipPathUnits="userSpaceOnUse"
       id="clipPath152"><path
         d="m 0,0 2384,0 0,3370 L 0,3370 0,0 z"
         id="path154"
         inkscape:connector-curvature="0" /></clipPath><clipPath
       clipPathUnits="userSpaceOnUse"
       id="clipPath174"><path
         d="m 0,0 2384,0 0,3370 L 0,3370 0,0 z"
         id="path176"
         inkscape:connector-curvature="0" /></clipPath><clipPath
       clipPathUnits="userSpaceOnUse"
       id="clipPath196"><path
         d="m 0,0 2384,0 0,3370 L 0,3370 0,0 z"
         id="path198"
         inkscape:connector-curvature="0" /></clipPath><clipPath
       clipPathUnits="userSpaceOnUse"
       id="clipPath216"><path
         d="m 0,0 2384,0 0,3370 L 0,3370 0,0 z"
         id="path218"
         inkscape:connector-curvature="0" /></clipPath><clipPath
       clipPathUnits="userSpaceOnUse"
       id="clipPath230"><path
         d="m 0,0 2384,0 0,3370 L 0,3370 0,0 z"
         id="path232"
         inkscape:connector-curvature="0" /></clipPath><clipPath
       clipPathUnits="userSpaceOnUse"
       id="clipPath244"><path
         d="m 0,0 2384,0 0,3370 L 0,3370 0,0 z"
         id="path246"
         inkscape:connector-curvature="0" /></clipPath><clipPath
       clipPathUnits="userSpaceOnUse"
       id="clipPath258"><path
         d="m 0,0 2384,0 0,3370 L 0,3370 0,0 z"
         id="path260"
         inkscape:connector-curvature="0" /></clipPath><clipPath
       clipPathUnits="userSpaceOnUse"
       id="clipPath274"><path
         d="m 0,0 2384,0 0,3370 L 0,3370 0,0 z"
         id="path276"
         inkscape:connector-curvature="0" /></clipPath><clipPath
       clipPathUnits="userSpaceOnUse"
       id="clipPath288"><path
         d="m 0,0 2384,0 0,3370 L 0,3370 0,0 z"
         id="path290"
         inkscape:connector-curvature="0" /></clipPath><clipPath
       clipPathUnits="userSpaceOnUse"
       id="clipPath304"><path
         d="m 0,0 2384,0 0,3370 L 0,3370 0,0 z"
         id="path306"
         inkscape:connector-curvature="0" /></clipPath><clipPath
       clipPathUnits="userSpaceOnUse"
       id="clipPath320"><path
         d="m 0,0 2384,0 0,3370 L 0,3370 0,0 z"
         id="path322"
         inkscape:connector-curvature="0" /></clipPath><clipPath
       clipPathUnits="userSpaceOnUse"
       id="clipPath336"><path
         d="m 0,0 2384,0 0,3370 L 0,3370 0,0 z"
         id="path338"
         inkscape:connector-curvature="0" /></clipPath><clipPath
       clipPathUnits="userSpaceOnUse"
       id="clipPath352"><path
         d="m 0,0 2384,0 0,3370 L 0,3370 0,0 z"
         id="path354"
         inkscape:connector-curvature="0" /></clipPath><clipPath
       clipPathUnits="userSpaceOnUse"
       id="clipPath366"><path
         d="m 0,0 2384,0 0,3370 L 0,3370 0,0 z"
         id="path368"
         inkscape:connector-curvature="0" /></clipPath><clipPath
       clipPathUnits="userSpaceOnUse"
       id="clipPath366-2"><path
         inkscape:connector-curvature="0"
         d="m 0,0 2384,0 0,3370 L 0,3370 0,0 z"
         id="path368-5" /></clipPath><clipPath
       clipPathUnits="userSpaceOnUse"
       id="clipPath352-6"><path
         inkscape:connector-curvature="0"
         d="m 0,0 2384,0 0,3370 L 0,3370 0,0 z"
         id="path354-2" /></clipPath><clipPath
       clipPathUnits="userSpaceOnUse"
       id="clipPath336-9"><path
         inkscape:connector-curvature="0"
         d="m 0,0 2384,0 0,3370 L 0,3370 0,0 z"
         id="path338-5" /></clipPath><clipPath
       clipPathUnits="userSpaceOnUse"
       id="clipPath320-4"><path
         inkscape:connector-curvature="0"
         d="m 0,0 2384,0 0,3370 L 0,3370 0,0 z"
         id="path322-7" /></clipPath><clipPath
       clipPathUnits="userSpaceOnUse"
       id="clipPath304-3"><path
         inkscape:connector-curvature="0"
         d="m 0,0 2384,0 0,3370 L 0,3370 0,0 z"
         id="path306-2" /></clipPath><clipPath
       clipPathUnits="userSpaceOnUse"
       id="clipPath288-3"><path
         inkscape:connector-curvature="0"
         d="m 0,0 2384,0 0,3370 L 0,3370 0,0 z"
         id="path290-4" /></clipPath><clipPath
       clipPathUnits="userSpaceOnUse"
       id="clipPath274-1"><path
         inkscape:connector-curvature="0"
         d="m 0,0 2384,0 0,3370 L 0,3370 0,0 z"
         id="path276-0" /></clipPath><clipPath
       clipPathUnits="userSpaceOnUse"
       id="clipPath258-6"><path
         inkscape:connector-curvature="0"
         d="m 0,0 2384,0 0,3370 L 0,3370 0,0 z"
         id="path260-6" /></clipPath><clipPath
       clipPathUnits="userSpaceOnUse"
       id="clipPath244-6"><path
         inkscape:connector-curvature="0"
         d="m 0,0 2384,0 0,3370 L 0,3370 0,0 z"
         id="path246-2" /></clipPath><clipPath
       clipPathUnits="userSpaceOnUse"
       id="clipPath230-3"><path
         inkscape:connector-curvature="0"
         d="m 0,0 2384,0 0,3370 L 0,3370 0,0 z"
         id="path232-1" /></clipPath><clipPath
       clipPathUnits="userSpaceOnUse"
       id="clipPath216-1"><path
         inkscape:connector-curvature="0"
         d="m 0,0 2384,0 0,3370 L 0,3370 0,0 z"
         id="path218-4" /></clipPath><clipPath
       clipPathUnits="userSpaceOnUse"
       id="clipPath196-7"><path
         inkscape:connector-curvature="0"
         d="m 0,0 2384,0 0,3370 L 0,3370 0,0 z"
         id="path198-6" /></clipPath><clipPath
       clipPathUnits="userSpaceOnUse"
       id="clipPath174-1"><path
         inkscape:connector-curvature="0"
         d="m 0,0 2384,0 0,3370 L 0,3370 0,0 z"
         id="path176-8" /></clipPath><clipPath
       clipPathUnits="userSpaceOnUse"
       id="clipPath152-2"><path
         inkscape:connector-curvature="0"
         d="m 0,0 2384,0 0,3370 L 0,3370 0,0 z"
         id="path154-1" /></clipPath><clipPath
       clipPathUnits="userSpaceOnUse"
       id="clipPath132-8"><path
         inkscape:connector-curvature="0"
         d="m 0,0 2384,0 0,3370 L 0,3370 0,0 z"
         id="path134-7" /></clipPath><clipPath
       clipPathUnits="userSpaceOnUse"
       id="clipPath92-0"><path
         inkscape:connector-curvature="0"
         d="m 0,0 2384,0 0,3370 L 0,3370 0,0 z"
         id="path94-0" /></clipPath><clipPath
       clipPathUnits="userSpaceOnUse"
       id="clipPath52-3"><path
         inkscape:connector-curvature="0"
         d="m 0,0 2384,0 0,3370 L 0,3370 0,0 z"
         id="path54-6" /></clipPath><clipPath
       clipPathUnits="userSpaceOnUse"
       id="clipPath32-3"><path
         inkscape:connector-curvature="0"
         d="m 0,0 2384,0 0,3370 L 0,3370 0,0 z"
         id="path34-2" /></clipPath><clipPath
       clipPathUnits="userSpaceOnUse"
       id="clipPath366-2-1"><path
         inkscape:connector-curvature="0"
         d="m 0,0 2384,0 0,3370 L 0,3370 0,0 z"
         id="path368-5-9" /></clipPath><clipPath
       clipPathUnits="userSpaceOnUse"
       id="clipPath352-6-2"><path
         inkscape:connector-curvature="0"
         d="m 0,0 2384,0 0,3370 L 0,3370 0,0 z"
         id="path354-2-5" /></clipPath><clipPath
       clipPathUnits="userSpaceOnUse"
       id="clipPath336-9-2"><path
         inkscape:connector-curvature="0"
         d="m 0,0 2384,0 0,3370 L 0,3370 0,0 z"
         id="path338-5-7" /></clipPath><clipPath
       clipPathUnits="userSpaceOnUse"
       id="clipPath320-4-1"><path
         inkscape:connector-curvature="0"
         d="m 0,0 2384,0 0,3370 L 0,3370 0,0 z"
         id="path322-7-5" /></clipPath><clipPath
       clipPathUnits="userSpaceOnUse"
       id="clipPath304-3-8"><path
         inkscape:connector-curvature="0"
         d="m 0,0 2384,0 0,3370 L 0,3370 0,0 z"
         id="path306-2-7" /></clipPath><clipPath
       clipPathUnits="userSpaceOnUse"
       id="clipPath288-3-4"><path
         inkscape:connector-curvature="0"
         d="m 0,0 2384,0 0,3370 L 0,3370 0,0 z"
         id="path290-4-4" /></clipPath><clipPath
       clipPathUnits="userSpaceOnUse"
       id="clipPath274-1-1"><path
         inkscape:connector-curvature="0"
         d="m 0,0 2384,0 0,3370 L 0,3370 0,0 z"
         id="path276-0-7" /></clipPath><clipPath
       clipPathUnits="userSpaceOnUse"
       id="clipPath258-6-8"><path
         inkscape:connector-curvature="0"
         d="m 0,0 2384,0 0,3370 L 0,3370 0,0 z"
         id="path260-6-2" /></clipPath><clipPath
       clipPathUnits="userSpaceOnUse"
       id="clipPath244-6-1"><path
         inkscape:connector-curvature="0"
         d="m 0,0 2384,0 0,3370 L 0,3370 0,0 z"
         id="path246-2-5" /></clipPath><clipPath
       clipPathUnits="userSpaceOnUse"
       id="clipPath230-3-0"><path
         inkscape:connector-curvature="0"
         d="m 0,0 2384,0 0,3370 L 0,3370 0,0 z"
         id="path232-1-4" /></clipPath><clipPath
       clipPathUnits="userSpaceOnUse"
       id="clipPath216-1-5"><path
         inkscape:connector-curvature="0"
         d="m 0,0 2384,0 0,3370 L 0,3370 0,0 z"
         id="path218-4-2" /></clipPath><clipPath
       clipPathUnits="userSpaceOnUse"
       id="clipPath196-7-7"><path
         inkscape:connector-curvature="0"
         d="m 0,0 2384,0 0,3370 L 0,3370 0,0 z"
         id="path198-6-3" /></clipPath><clipPath
       clipPathUnits="userSpaceOnUse"
       id="clipPath174-1-0"><path
         inkscape:connector-curvature="0"
         d="m 0,0 2384,0 0,3370 L 0,3370 0,0 z"
         id="path176-8-7" /></clipPath><clipPath
       clipPathUnits="userSpaceOnUse"
       id="clipPath152-2-6"><path
         inkscape:connector-curvature="0"
         d="m 0,0 2384,0 0,3370 L 0,3370 0,0 z"
         id="path154-1-5" /></clipPath><clipPath
       clipPathUnits="userSpaceOnUse"
       id="clipPath132-8-4"><path
         inkscape:connector-curvature="0"
         d="m 0,0 2384,0 0,3370 L 0,3370 0,0 z"
         id="path134-7-1" /></clipPath><clipPath
       clipPathUnits="userSpaceOnUse"
       id="clipPath92-0-9"><path
         inkscape:connector-curvature="0"
         d="m 0,0 2384,0 0,3370 L 0,3370 0,0 z"
         id="path94-0-7" /></clipPath><clipPath
       clipPathUnits="userSpaceOnUse"
       id="clipPath52-3-0"><path
         inkscape:connector-curvature="0"
         d="m 0,0 2384,0 0,3370 L 0,3370 0,0 z"
         id="path54-6-1" /></clipPath><clipPath
       clipPathUnits="userSpaceOnUse"
       id="clipPath32-3-2"><path
         inkscape:connector-curvature="0"
         d="m 0,0 2384,0 0,3370 L 0,3370 0,0 z"
         id="path34-2-4" /></clipPath></defs><sodipodi:namedview
     pagecolor="#ffffff"
     bordercolor="#666666"
     borderopacity="1"
     objecttolerance="10"
     gridtolerance="10"
     guidetolerance="10"
     inkscape:pageopacity="0"
     inkscape:pageshadow="2"
     inkscape:window-width="1920"
     inkscape:window-height="1000"
     id="namedview4"
     showgrid="false"
     inkscape:zoom="1.3455804"
     inkscape:cx="173.09408"
     inkscape:cy="106.10539"
     inkscape:window-x="0"
     inkscape:window-y="49"
     inkscape:window-maximized="1"
     inkscape:current-layer="g12"
     borderlayer="false" /><g
     id="g10"
     inkscape:groupmode="layer"
     inkscape:label="marlborocolor"
     transform="matrix(1.25,0,0,-1.25,0,289.99999)"><g
       id="g12"
       transform="translate(72,126.43)"><text
         transform="matrix(1,0,0,-1,251.36,-190.86)"
         id="text374"><tspan
           style="font-size:10.9090004px;font-variant:normal;font-weight:normal;writing-mode:lr-tb;fill:#000000;fill-opacity:1;fill-rule:nonzero;stroke:none;font-family:FreeSerif;-inkscape-font-specification:FreeSerif"
           x="0"
           y="0"
           id="tspan376" /></text>
<text
         id="text14"
         x="-49.753197"
         y="-85.823227"
         style="font-size:15.94150734px"
         transform="scale(1,-1)"><tspan
           style="font-size:14.49215889px;font-variant:normal;font-weight:normal;writing-mode:lr-tb;fill:#000000;fill-opacity:1;fill-rule:nonzero;stroke:none;font-family:FreeSerifBold;-inkscape-font-specification:FreeSerifBold"
           x="-49.753197 -40.376831 -32.753983 -26.087572 -22.348513 -18.754366 -13.406908"
           y="-85.823227"
           sodipodi:role="line"
           id="tspan16">English</tspan></text>
<text
         id="text18"
         x="71.481964"
         y="-85.823227"
         style="font-size:15.94150734px"
         transform="scale(1,-1)"><tspan
           style="font-size:14.49215889px;font-variant:normal;font-weight:normal;writing-mode:lr-tb;fill:#000000;fill-opacity:1;fill-rule:nonzero;stroke:none;font-family:FreeSerifBold;-inkscape-font-specification:FreeSerifBold"
           x="71.481964 81.583031 88.684204 96.741821 101.42278 108.4515 116.43665 122.50892 128.07385"
           y="-85.823227"
           sodipodi:role="line"
           id="tspan20">Cantonese</tspan></text>
<text
         id="text22"
         x="229.98041"
         y="-85.823227"
         style="font-size:15.94150734px"
         transform="scale(1,-1)"><tspan
           style="font-size:14.49215889px;font-variant:normal;font-weight:normal;writing-mode:lr-tb;fill:#000000;fill-opacity:1;fill-rule:nonzero;stroke:none;font-family:FreeSerifBold;-inkscape-font-specification:FreeSerifBold"
           x="229.98041 243.15385 250.25502 258.24017 266.08038 273.32648 279.76096 283.42746"
           y="-85.823227"
           sodipodi:role="line"
           id="tspan24">Mandarin</tspan></text>
<g
         id="g26"
         transform="matrix(1.3284589,0,0,1.3284589,-80.692986,-157.03237)"><g
           id="g28"><g
             id="g30"
             clip-path="url(#clipPath32-3-2)"><g
               id="g36"
               transform="scale(0.229721,0.229721)"><path
                 d="m 70.3516,686.633 0,31.594 207.5504,0 0,-63.184 -207.5504,0"
                 style="fill:#ffa500;fill-opacity:1;fill-rule:nonzero;stroke:none"
                 id="path38"
                 inkscape:connector-curvature="0" /><path
                 d="m 70.3516,686.633 0,31.594 207.5504,0 0,-63.184 -207.5504,0 0,31.59 z"
                 style="fill:none;stroke:#000000;stroke-width:2.61165786;stroke-linecap:butt;stroke-linejoin:miter;stroke-miterlimit:10;stroke-opacity:1;stroke-dasharray:none"
                 id="path40"
                 inkscape:connector-curvature="0" /></g></g></g></g><text
         id="text42"
         x="-54.721565"
         y="-47.590168"
         style="font-size:15.94150734px"
         transform="scale(1,-1)"><tspan
           style="font-size:14.49215889px;font-variant:normal;font-weight:normal;writing-mode:lr-tb;fill:#000000;fill-opacity:1;fill-rule:nonzero;stroke:none;font-family:Doulos SIL;-inkscape-font-specification:DoulosSIL"
           x="-54.721565 -43.432304 -36.997734 -33.983284 -29.954571 -22.708467 -15.462374 -7.6654983"
           y="-47.590168"
           sodipodi:role="line"
           id="tspan44">maːlboʁo</tspan></text>
<g
         id="g46"
         transform="matrix(1.3284589,0,0,1.3284589,-80.692986,-157.03237)"><g
           id="g48"><g
             id="g50"
             clip-path="url(#clipPath52-3-0)"><g
               id="g56"
               transform="scale(0.229721,0.229721)"><path
                 d="m 402.898,681.879 0,36.348 398,0 0,-72.692 -398,0"
                 style="fill:#ffa500;fill-opacity:1;fill-rule:nonzero;stroke:none"
                 id="path58"
                 inkscape:connector-curvature="0" /><path
                 d="m 402.898,681.879 0,36.348 398,0 0,-72.692 -398,0 0,36.344 z"
                 style="fill:none;stroke:#000000;stroke-width:2.61165786;stroke-linecap:butt;stroke-linejoin:miter;stroke-miterlimit:10;stroke-opacity:1;stroke-dasharray:none"
                 id="path60"
                 inkscape:connector-curvature="0" /></g></g></g></g><text
         id="text62"
         x="46.759304"
         y="-47.590168"
         style="font-size:15.94150734px"
         transform="scale(1,-1)"><tspan
           style="font-size:14.49215889px;font-variant:normal;font-weight:normal;writing-mode:lr-tb;fill:#000000;fill-opacity:1;fill-rule:nonzero;stroke:none;font-family:Doulos SIL;-inkscape-font-specification:DoulosSIL"
           x="46.759304 58.048756 64.483231 67.497589"
           y="-47.590168"
           sodipodi:role="line"
           id="tspan64">maːn</tspan></text>
<text
         id="text66"
         x="74.763306"
         y="-45.41148"
         style="font-size:15.94150734px"
         transform="scale(1,-1)"><tspan
           style="font-size:10.58781719px;font-variant:normal;font-weight:normal;writing-mode:lr-tb;fill:#000000;fill-opacity:1;fill-rule:nonzero;stroke:none;font-family:CMR8;-inkscape-font-specification:CMR8"
           x="74.763306 81.041817"
           y="-45.41148"
           sodipodi:role="line"
           id="tspan68">22</tspan></text>
<text
         id="text70"
         x="87.33049"
         y="-47.590168"
         style="font-size:15.94150734px"
         transform="scale(1,-1)"><tspan
           style="font-size:14.49215889px;font-variant:normal;font-weight:normal;writing-mode:lr-tb;fill:#000000;fill-opacity:1;fill-rule:nonzero;stroke:none;font-family:Doulos SIL;-inkscape-font-specification:DoulosSIL"
           x="87.33049 94.576584 101.82269"
           y="-47.590168"
           sodipodi:role="line"
           id="tspan72">pow</tspan></text>
<text
         id="text74"
         x="112.31878"
         y="-45.41148"
         style="font-size:15.94150734px"
         transform="scale(1,-1)"><tspan
           style="font-size:10.58781719px;font-variant:normal;font-weight:normal;writing-mode:lr-tb;fill:#000000;fill-opacity:1;fill-rule:nonzero;stroke:none;font-family:CMR8;-inkscape-font-specification:CMR8"
           x="112.31878 118.59739"
           y="-45.41148"
           sodipodi:role="line"
           id="tspan76">35</tspan></text>
<text
         id="text78"
         x="124.88605"
         y="-47.590168"
         style="font-size:15.94150734px"
         transform="scale(1,-1)"><tspan
           style="font-size:14.49215889px;font-variant:normal;font-weight:normal;writing-mode:lr-tb;fill:#000000;fill-opacity:1;fill-rule:nonzero;stroke:none;font-family:Doulos SIL;-inkscape-font-specification:DoulosSIL"
           x="124.88605 128.91489 136.16096"
           y="-47.590168"
           sodipodi:role="line"
           id="tspan80">low</tspan></text>
<text
         id="text82"
         x="146.64621"
         y="-45.41148"
         style="font-size:15.94150734px"
         transform="scale(1,-1)"><tspan
           style="font-size:10.58781719px;font-variant:normal;font-weight:normal;writing-mode:lr-tb;fill:#000000;fill-opacity:1;fill-rule:nonzero;stroke:none;font-family:CMR8;-inkscape-font-specification:CMR8"
           x="146.64621 152.92474"
           y="-45.41148"
           sodipodi:role="line"
           id="tspan84">32</tspan></text>
<g
         id="g86"
         transform="matrix(1.3284589,0,0,1.3284589,-80.692986,-157.03237)"><g
           id="g88"><g
             id="g90"
             clip-path="url(#clipPath92-0-9)"><g
               id="g96"
               transform="scale(0.229721,0.229721)"><path
                 d="m 944.559,681.879 0,36.348 348.451,0 0,-72.692 -348.451,0"
                 style="fill:#ffa500;fill-opacity:1;fill-rule:nonzero;stroke:none"
                 id="path98"
                 inkscape:connector-curvature="0" /><path
                 d="m 944.559,681.879 0,36.348 348.451,0 0,-72.692 -348.451,0 0,36.344 z"
                 style="fill:none;stroke:#000000;stroke-width:2.61165786;stroke-linecap:butt;stroke-linejoin:miter;stroke-miterlimit:10;stroke-opacity:1;stroke-dasharray:none"
                 id="path100"
                 inkscape:connector-curvature="0" /></g></g></g></g><text
         id="text102"
         x="212.05951"
         y="-47.590168"
         style="font-size:15.94150734px"
         transform="scale(1,-1)"><tspan
           style="font-size:14.49215889px;font-variant:normal;font-weight:normal;writing-mode:lr-tb;fill:#000000;fill-opacity:1;fill-rule:nonzero;stroke:none;font-family:Doulos SIL;-inkscape-font-specification:DoulosSIL"
           x="212.05951 222.53734 228.97191"
           y="-47.590168"
           sodipodi:role="line"
           id="tspan104">wan</tspan></text>
<text
         id="text106"
         x="236.22417"
         y="-45.41148"
         style="font-size:15.94150734px"
         transform="scale(1,-1)"><tspan
           style="font-size:10.58781719px;font-variant:normal;font-weight:normal;writing-mode:lr-tb;fill:#000000;fill-opacity:1;fill-rule:nonzero;stroke:none;font-family:CMR8;-inkscape-font-specification:CMR8"
           x="236.22417 242.50278"
           y="-45.41148"
           sodipodi:role="line"
           id="tspan108">51</tspan></text>
<text
         id="text110"
         x="248.80473"
         y="-47.590168"
         style="font-size:15.94150734px"
         transform="scale(1,-1)"><tspan
           style="font-size:14.49215889px;font-variant:normal;font-weight:normal;writing-mode:lr-tb;fill:#000000;fill-opacity:1;fill-rule:nonzero;stroke:none;font-family:Doulos SIL;-inkscape-font-specification:DoulosSIL"
           x="248.80473 256.05081 262.48529"
           y="-47.590168"
           sodipodi:role="line"
           id="tspan112">paw</tspan></text>
<text
         id="text114"
         x="272.96936"
         y="-45.41148"
         style="font-size:15.94150734px"
         transform="scale(1,-1)"><tspan
           style="font-size:10.58781719px;font-variant:normal;font-weight:normal;writing-mode:lr-tb;fill:#000000;fill-opacity:1;fill-rule:nonzero;stroke:none;font-family:CMR8;-inkscape-font-specification:CMR8"
           x="272.96936 279.24799"
           y="-45.41148"
           sodipodi:role="line"
           id="tspan116">21</tspan></text>
<text
         id="text118"
         x="285.53656"
         y="-47.590168"
         style="font-size:15.94150734px"
         transform="scale(1,-1)"><tspan
           style="font-size:14.49215889px;font-variant:normal;font-weight:normal;writing-mode:lr-tb;fill:#000000;fill-opacity:1;fill-rule:nonzero;stroke:none;font-family:Doulos SIL;-inkscape-font-specification:DoulosSIL"
           x="285.53656 289.56537"
           y="-47.590168"
           sodipodi:role="line"
           id="tspan120">lu</tspan></text>
<text
         id="text122"
         x="296.82843"
         y="-45.41148"
         style="font-size:15.94150734px"
         transform="scale(1,-1)"><tspan
           style="font-size:10.58781719px;font-variant:normal;font-weight:normal;writing-mode:lr-tb;fill:#000000;fill-opacity:1;fill-rule:nonzero;stroke:none;font-family:CMR8;-inkscape-font-specification:CMR8"
           x="296.82843 303.10706"
           y="-45.41148"
           sodipodi:role="line"
           id="tspan124">51</tspan></text>
<g
         id="g126"
         transform="matrix(1.3284589,0,0,1.3284589,-80.692986,-157.03237)"><g
           id="g128"><g
             id="g130"
             clip-path="url(#clipPath132-8-4)"><g
               id="g136"
               transform="scale(0.229721,0.229721)"><path
                 d="m 37.3867,407.074 0,35.117 273.4843,0 0,-70.234 -273.4843,0"
                 style="fill:#ffa500;fill-opacity:1;fill-rule:nonzero;stroke:none"
                 id="path138"
                 inkscape:connector-curvature="0" /><path
                 d="m 37.3867,407.074 0,35.117 273.4843,0 0,-70.234 -273.4843,0 0,35.117 z"
                 style="fill:none;stroke:#000000;stroke-width:2.61165786;stroke-linecap:butt;stroke-linejoin:miter;stroke-miterlimit:10;stroke-opacity:1;stroke-dasharray:none"
                 id="path140"
                 inkscape:connector-curvature="0" /></g></g></g></g><text
         id="text142"
         x="-64.778008"
         y="36.049603"
         style="font-size:15.94150734px"
         transform="scale(1,-1)"><tspan
           style="font-size:14.49215889px;font-style:italic;font-variant:normal;font-weight:normal;writing-mode:lr-tb;fill:#000000;fill-opacity:1;fill-rule:nonzero;stroke:none;font-family:FreeSerifItalic;-inkscape-font-specification:FreeSerifItalic"
           x="-64.778008 -56.763939 -51.561211 -44.604958 -37.576248 -32.083672 -22.837763 -13.953989 -6.7078881 3.2481732"
           y="36.049603"
           sodipodi:role="line"
           id="tspan144">ProperName</tspan></text>
<g
         id="g146"
         transform="matrix(1.3284589,0,0,1.3284589,-80.692986,-157.03237)"><g
           id="g148"><g
             id="g150"
             clip-path="url(#clipPath152-2-6)"><g
               id="g156"
               transform="scale(0.229721,0.229721)"><path
                 d="m 376.039,408.309 0,73.726 451.719,0 0,-147.453 -451.719,0"
                 style="fill:#ffa500;fill-opacity:1;fill-rule:nonzero;stroke:none"
                 id="path158"
                 inkscape:connector-curvature="0" /><path
                 d="m 376.039,408.309 0,73.726 451.719,0 0,-147.453 -451.719,0 0,73.727 z"
                 style="fill:none;stroke:#000000;stroke-width:2.61165786;stroke-linecap:butt;stroke-linejoin:miter;stroke-miterlimit:10;stroke-opacity:1;stroke-dasharray:none"
                 id="path160"
                 inkscape:connector-curvature="0" /></g></g></g></g><text
         id="text162"
         x="46.506958"
         y="27.016075"
         style="font-size:15.94150734px"
         transform="scale(1,-1)"><tspan
           style="font-size:14.49215889px;font-variant:normal;font-weight:normal;writing-mode:lr-tb;fill:#000000;fill-opacity:1;fill-rule:nonzero;stroke:none;font-family:FreeSerif;-inkscape-font-specification:FreeSerif"
           x="46.506958 52.941433 62.028053 69.056763 75.346321 86.403831 93.44709 102.08439 109.3305 116.5766 123.82258 134.89467 143.47404 148.22746 154.66196"
           y="27.016075"
           sodipodi:role="line"
           id="tspan164">“Roadof1000Tre-</tspan><tspan
           style="font-size:14.49215889px;font-variant:normal;font-weight:normal;writing-mode:lr-tb;fill:#000000;fill-opacity:1;fill-rule:nonzero;stroke:none;font-family:FreeSerif;-inkscape-font-specification:FreeSerif"
           x="46.506958 52.651588 57.999245 65.100418 69.853828 75.925995 81.563499"
           y="45.016689"
           sodipodi:role="line"
           id="tspan166">asures”</tspan></text>
<g
         id="g168"
         transform="matrix(1.3284589,0,0,1.3284589,-80.692986,-157.03237)"><g
           id="g170"><g
             id="g172"
             clip-path="url(#clipPath174-1-0)"><g
               id="g178"
               transform="scale(0.229721,0.229721)"><path
                 d="m 892.926,408.309 0,73.726 451.714,0 0,-147.453 -451.714,0"
                 style="fill:#ffa500;fill-opacity:1;fill-rule:nonzero;stroke:none"
                 id="path180"
                 inkscape:connector-curvature="0" /><path
                 d="m 892.926,408.309 0,73.726 451.714,0 0,-147.453 -451.714,0 0,73.727 z"
                 style="fill:none;stroke:#000000;stroke-width:2.61165786;stroke-linecap:butt;stroke-linejoin:miter;stroke-miterlimit:10;stroke-opacity:1;stroke-dasharray:none"
                 id="path182"
                 inkscape:connector-curvature="0" /></g></g></g></g><text
         id="text184"
         x="204.24818"
         y="27.016075"
         style="font-size:15.94150734px"
         transform="scale(1,-1)"><tspan
           style="font-size:14.49215889px;font-variant:normal;font-weight:normal;writing-mode:lr-tb;fill:#000000;fill-opacity:1;fill-rule:nonzero;stroke:none;font-family:FreeSerif;-inkscape-font-specification:FreeSerif"
           x="204.24818 210.68275 219.76927 226.79799 233.08763 244.14516 251.18832 259.82562 267.07172 274.31781 281.5639 292.63586 301.21527 305.96869 312.40314"
           y="27.016075"
           sodipodi:role="line"
           id="tspan186">“Roadof1000Tre-</tspan><tspan
           style="font-size:14.49215889px;font-variant:normal;font-weight:normal;writing-mode:lr-tb;fill:#000000;fill-opacity:1;fill-rule:nonzero;stroke:none;font-family:FreeSerif;-inkscape-font-specification:FreeSerif"
           x="204.24818 210.39291 215.74046 222.84164 227.59506 233.66733 239.30473"
           y="45.016689"
           sodipodi:role="line"
           id="tspan188">asures”</tspan></text>
<g
         id="g190"
         transform="matrix(1.3284589,0,0,1.3284589,-80.692986,-157.03237)"><g
           id="g192"><g
             id="g194"
             clip-path="url(#clipPath196-7-7)"><g
               id="g200"
               transform="scale(0.229721,0.229721)"><path
                 d="m 1032.8,148.336 0,36.539 171.96,0 0,-73.082 -171.96,0"
                 style="fill:#ffa500;fill-opacity:1;fill-rule:nonzero;stroke:none"
                 id="path202"
                 inkscape:connector-curvature="0" /><path
                 d="m 1032.8,148.336 0,36.539 171.96,0 0,-73.082 -171.96,0 0,36.543 z"
                 style="fill:none;stroke:#000000;stroke-width:2.61165786;stroke-linecap:butt;stroke-linejoin:miter;stroke-miterlimit:10;stroke-opacity:1;stroke-dasharray:none"
                 id="path204"
                 inkscape:connector-curvature="0" /></g></g></g></g><text
         id="text206"
         x="238.98744"
         y="116.99258"
         style="font-size:15.94150734px"
         transform="scale(1,-1)"><tspan
           style="font-size:14.49215889px;font-variant:normal;writing-mode:lr-tb;fill:#000000;fill-opacity:1;fill-rule:nonzero;stroke:none;font-family:HAN NOM A;-inkscape-font-specification:HANNOM-A"
           x="238.98744 253.47954 267.97171"
           y="116.99258"
           sodipodi:role="line"
           id="tspan208">万宝路</tspan></text>
<g
         id="g210"
         transform="matrix(1.3284589,0,0,1.3284589,-80.692986,-157.03237)"><g
           id="g212"><g
             id="g214"
             clip-path="url(#clipPath216-1-5)"><g
               id="g220"
               transform="scale(0.229721,0.229721)"><path
                 d="m 174.539,653.242 0.094,-209.137"
                 style="fill:none;stroke:#000000;stroke-width:9.32396221;stroke-linecap:round;stroke-linejoin:miter;stroke-miterlimit:10;stroke-opacity:1;stroke-dasharray:0, 18.51303008;stroke-dashoffset:-4.66198833"
                 id="path222"
                 inkscape:connector-curvature="0" /></g></g></g></g><g
         id="g224"
         transform="matrix(1.3284589,0,0,1.3284589,-80.692986,-157.03237)"><g
           id="g226"><g
             id="g228"
             clip-path="url(#clipPath230-3-0)"><g
               id="g234"
               transform="scale(0.229721,0.229721)"><path
                 d="m 602.668,643.699 0.059,-159.601"
                 style="fill:none;stroke:#000000;stroke-width:9.32396221;stroke-linecap:round;stroke-linejoin:miter;stroke-miterlimit:10;stroke-opacity:1;stroke-dasharray:0, 18.46937047;stroke-dashoffset:-4.66198833"
                 id="path236"
                 inkscape:connector-curvature="0" /></g></g></g></g><g
         id="g238"
         transform="matrix(1.3284589,0,0,1.3284589,-80.692986,-157.03237)"><g
           id="g240"><g
             id="g242"
             clip-path="url(#clipPath244-6-1)"><g
               id="g248"
               transform="scale(0.229721,0.229721)"><path
                 d="m 1119.47,643.699 0.12,-159.601"
                 style="fill:none;stroke:#000000;stroke-width:9.32396221;stroke-linecap:round;stroke-linejoin:miter;stroke-miterlimit:10;stroke-opacity:1;stroke-dasharray:0, 18.46944575;stroke-dashoffset:-4.66198833"
                 id="path250"
                 inkscape:connector-curvature="0" /></g></g></g></g><g
         id="g252"
         transform="matrix(1.3284589,0,0,1.3284589,-80.692986,-157.03237)"><g
           id="g254"><g
             id="g256"
             clip-path="url(#clipPath258-6-8)"><g
               id="g262"
               transform="scale(0.229721,0.229721)"><path
                 d="M 357.34,669.848 401.164,685.5 357.34,701.148 374.867,685.5"
                 style="fill:#000000;fill-opacity:1;fill-rule:nonzero;stroke:none"
                 id="path264"
                 inkscape:connector-curvature="0" /><path
                 d="m 280.43,685.5 94.437,0"
                 style="fill:none;stroke:#000000;stroke-width:9.32396221;stroke-linecap:butt;stroke-linejoin:miter;stroke-miterlimit:10;stroke-opacity:1;stroke-dasharray:none"
                 id="path266"
                 inkscape:connector-curvature="0" /></g></g></g></g><g
         id="g268"
         transform="matrix(1.3284589,0,0,1.3284589,-80.692986,-157.03237)"><g
           id="g270"><g
             id="g272"
             clip-path="url(#clipPath274-1-1)"><g
               id="g278"
               transform="scale(0.229721,0.229721)"><path
                 d="m 313.645,411.453 60.66,0"
                 style="fill:none;stroke:#000000;stroke-width:9.32396221;stroke-linecap:round;stroke-linejoin:miter;stroke-miterlimit:10;stroke-opacity:1;stroke-dasharray:0, 18.16902246;stroke-dashoffset:-4.66198833"
                 id="path280"
                 inkscape:connector-curvature="0" /></g></g></g></g><g
         id="g282"
         transform="matrix(1.3284589,0,0,1.3284589,-80.692986,-157.03237)"><g
           id="g284"><g
             id="g286"
             clip-path="url(#clipPath288-3-4)"><g
               id="g292"
               transform="scale(0.229721,0.229721)"><path
                 d="m 587.059,527.918 15.668,-43.82 15.632,43.828 -15.644,-17.535"
                 style="fill:#000000;fill-opacity:1;fill-rule:nonzero;stroke:none"
                 id="path294"
                 inkscape:connector-curvature="0" /><path
                 d="m 602.668,643.699 0.047,-133.308"
                 style="fill:none;stroke:#000000;stroke-width:9.32396221;stroke-linecap:butt;stroke-linejoin:miter;stroke-miterlimit:10;stroke-opacity:1;stroke-dasharray:none"
                 id="path296"
                 inkscape:connector-curvature="0" /></g></g></g></g><g
         id="g298"
         transform="matrix(1.3284589,0,0,1.3284589,-80.692986,-157.03237)"><g
           id="g300"><g
             id="g302"
             clip-path="url(#clipPath304-3-8)"><g
               id="g308"
               transform="scale(0.229721,0.229721)"><path
                 d="m 993.891,192.922 46.139,-6.102 -31.83,33.946 8.44,-21.93"
                 style="fill:#000000;fill-opacity:1;fill-rule:nonzero;stroke:none"
                 id="path310"
                 inkscape:connector-curvature="0" /><path
                 d="M 756.227,332.609 1016.64,198.836"
                 style="fill:none;stroke:#000000;stroke-width:9.32396221;stroke-linecap:butt;stroke-linejoin:miter;stroke-miterlimit:10;stroke-opacity:1;stroke-dasharray:none"
                 id="path312"
                 inkscape:connector-curvature="0" /></g></g></g></g><g
         id="g314"
         transform="matrix(1.3284589,0,0,1.3284589,-80.692986,-157.03237)"><g
           id="g316"><g
             id="g318"
             clip-path="url(#clipPath320-4-1)"><g
               id="g324"
               transform="scale(0.229721,0.229721)"><path
                 d="m 1135.05,288.754 -15.57,43.855 -15.74,-43.793 15.69,17.5"
                 style="fill:#000000;fill-opacity:1;fill-rule:nonzero;stroke:none"
                 id="path326"
                 inkscape:connector-curvature="0" /><path
                 d="m 1119.2,186.82 0.23,119.496"
                 style="fill:none;stroke:#000000;stroke-width:9.32396221;stroke-linecap:butt;stroke-linejoin:miter;stroke-miterlimit:10;stroke-opacity:1;stroke-dasharray:none"
                 id="path328"
                 inkscape:connector-curvature="0" /></g></g></g></g><g
         id="g330"
         transform="matrix(1.3284589,0,0,1.3284589,-80.692986,-157.03237)"><g
           id="g332"><g
             id="g334"
             clip-path="url(#clipPath336-9-2)"><g
               id="g340"
               transform="scale(0.229721,0.229721)"><path
                 d="m 1135.16,599.887 -15.69,43.812 -15.62,-43.832 15.64,17.539"
                 style="fill:#000000;fill-opacity:1;fill-rule:nonzero;stroke:none"
                 id="path342"
                 inkscape:connector-curvature="0" /><path
                 d="m 1119.59,484.098 -0.1,133.308"
                 style="fill:none;stroke:#000000;stroke-width:9.32396221;stroke-linecap:butt;stroke-linejoin:miter;stroke-miterlimit:10;stroke-opacity:1;stroke-dasharray:none"
                 id="path344"
                 inkscape:connector-curvature="0" /></g></g></g></g><g
         id="g346"
         transform="matrix(1.3284589,0,0,1.3284589,-80.692986,-157.03237)"><g
           id="g348"><g
             id="g350"
             clip-path="url(#clipPath352-6-2)"><g
               id="g356"
               transform="scale(0.229721,0.229721)"><path
                 d="m 804.141,685.5 138.683,0"
                 style="fill:none;stroke:#000000;stroke-width:9.32396221;stroke-linecap:round;stroke-linejoin:miter;stroke-miterlimit:10;stroke-opacity:1;stroke-dasharray:0, 19.01406176;stroke-dashoffset:-4.66198833"
                 id="path358"
                 inkscape:connector-curvature="0" /></g></g></g></g><g
         id="g360"
         transform="matrix(1.3284589,0,0,1.3284589,-80.692986,-157.03237)"><g
           id="g362"><g
             id="g364"
             clip-path="url(#clipPath366-2-1)"><g
               id="g370"
               transform="scale(0.229721,0.229721)"><path
                 d="m 831.199,411.453 59.992,0"
                 style="fill:none;stroke:#000000;stroke-width:9.32396221;stroke-linecap:round;stroke-linejoin:miter;stroke-miterlimit:10;stroke-opacity:1;stroke-dasharray:0, 17.91767859;stroke-dashoffset:-4.66198833"
                 id="path372"
                 inkscape:connector-curvature="0" /></g></g></g></g></g></g></svg>
